<svg width="59" height="80" viewBox="0 0 59 80" fill="none" xmlns="http://www.w3.org/2000/svg">
<path d="M52.8318 78.7876H5.86173C3.25917 78.7876 1.15234 76.7022 1.15234 74.1261V6.41184C1.15234 3.83575 3.25917 1.75037 5.86173 1.75037H52.8318C55.4344 1.75037 57.5412 3.83575 57.5412 6.41184V74.1261C57.5412 76.7022 55.4344 78.7876 52.8318 78.7876Z" fill="white"/>
<path d="M53.4514 79.6462H5.36596C2.63946 79.6462 0.408691 77.4382 0.408691 74.7394V5.55307C0.408691 2.85431 2.63946 0.64624 5.36596 0.64624H53.4514C56.1779 0.64624 58.4087 2.85431 58.4087 5.55307V74.7394C58.4087 77.5608 56.1779 79.6462 53.4514 79.6462ZM5.36596 2.24095C3.50698 2.24095 1.89587 3.71305 1.89587 5.67579V74.862C1.89587 76.7021 3.38305 78.2968 5.36596 78.2968H53.4514C55.3104 78.2968 56.9215 76.8248 56.9215 74.862V5.67579C56.9215 3.83572 55.4343 2.24095 53.4514 2.24095H5.36596Z" fill="black"/>
<path d="M48.618 11.8093H10.1991C9.82735 11.8093 9.45557 11.4413 9.45557 11.0733C9.45557 10.7053 9.82735 10.3373 10.1991 10.3373H48.618C48.9898 10.3373 49.3616 10.7053 49.3616 11.0733C49.3616 11.4413 48.9898 11.8093 48.618 11.8093Z" fill="black"/>
<path d="M48.618 19.5376H10.1991C9.82735 19.5376 9.45557 19.1696 9.45557 18.8015C9.45557 18.4335 9.82735 18.0656 10.1991 18.0656H48.618C48.9898 18.0656 49.3616 18.4335 49.3616 18.8015C49.3616 19.2922 48.9898 19.5376 48.618 19.5376Z" fill="black"/>
<path d="M48.618 27.3885H10.1991C9.82735 27.3885 9.45557 27.0205 9.45557 26.6525C9.45557 26.2845 9.82735 25.9165 10.1991 25.9165H48.618C48.9898 25.9165 49.3616 26.2845 49.3616 26.6525C49.3616 27.0205 48.9898 27.3885 48.618 27.3885Z" fill="black"/>
<path d="M48.618 35.1168H10.1991C9.82735 35.1168 9.45557 34.7488 9.45557 34.3808C9.45557 34.0128 9.82735 33.6448 10.1991 33.6448H48.618C48.9898 33.6448 49.3616 34.0128 49.3616 34.3808C49.3616 34.8715 48.9898 35.1168 48.618 35.1168Z" fill="black"/>
<path d="M48.618 42.9678H10.1991C9.82735 42.9678 9.45557 42.5998 9.45557 42.2318C9.45557 41.8638 9.82735 41.4957 10.1991 41.4957H48.618C48.9898 41.4957 49.3616 41.8638 49.3616 42.2318C49.3616 42.5998 48.9898 42.9678 48.618 42.9678Z" fill="black"/>
<path d="M48.618 50.696H10.1991C9.82735 50.696 9.45557 50.328 9.45557 49.96C9.45557 49.592 9.82735 49.224 10.1991 49.224H48.618C48.9898 49.224 49.3616 49.592 49.3616 49.96C49.3616 50.328 48.9898 50.696 48.618 50.696Z" fill="black"/>
<path d="M23.5838 65.0485H10.1991C9.82735 65.0485 9.45557 64.6805 9.45557 64.3125C9.45557 63.9445 9.82735 63.5764 10.1991 63.5764H23.5838C23.9556 63.5764 24.3273 63.9445 24.3273 64.3125C24.3273 64.6805 24.0795 65.0485 23.5838 65.0485Z" fill="black"/>
<path d="M18.8744 72.4088H10.1991C9.82735 72.4088 9.45557 72.0408 9.45557 71.6728C9.45557 71.3048 9.82735 70.9368 10.1991 70.9368H18.8744C19.2462 70.9368 19.618 71.3048 19.618 71.6728C19.618 72.0408 19.2462 72.4088 18.8744 72.4088Z" fill="black"/>
<path d="M46.5113 64.8032C48.3703 61.4911 41.678 61.4911 43.6609 64.8032C41.8019 61.4911 38.3318 67.2566 42.1737 67.2566C38.3318 67.2566 41.678 73.0221 43.6609 69.71C41.8019 73.0221 48.4942 73.0221 46.5113 69.71C48.3703 73.0221 51.8404 67.2566 47.9985 67.2566C51.8404 67.2566 48.4942 61.4911 46.5113 64.8032Z" fill="#007BFF"/>
</svg>
