<svg width="64" height="67" viewBox="0 0 64 67" fill="none" xmlns="http://www.w3.org/2000/svg">
<path d="M14.7 1.32275C22.2714 1.32275 28.3533 7.40469 28.3533 14.9761V33.7184H1.17081V14.9761C1.04669 7.40469 7.12862 1.32275 14.7 1.32275Z" fill="#007BFF"/>
<path d="M49.3301 66.7346C41.5105 66.7346 35.0562 60.2803 35.0562 52.4606V14.9761C35.0562 7.15645 41.5105 0.702148 49.3301 0.702148C57.1497 0.702148 63.604 7.15645 63.604 14.9761V52.4606C63.4799 60.4044 57.1497 66.7346 49.3301 66.7346ZM49.3301 1.94336C42.1311 1.94336 36.2974 7.77706 36.2974 14.9761V52.4606C36.2974 59.6597 42.1311 65.4934 49.3301 65.4934C56.5291 65.4934 62.3628 59.6597 62.3628 52.4606V14.9761C62.2387 7.77706 56.405 1.94336 49.3301 1.94336Z" fill="black"/>
<path d="M49.3301 66.7346C41.5105 66.7346 35.0562 60.2803 35.0562 52.4607V33.7184C35.0562 33.346 35.3044 33.0978 35.6768 33.0978H62.8593C63.2317 33.0978 63.4799 33.346 63.4799 33.7184V52.4607C63.4799 60.4044 57.1497 66.7346 49.3301 66.7346ZM36.2974 34.339V52.4607C36.2974 59.6597 42.1311 65.4934 49.3301 65.4934C56.5291 65.4934 62.3628 59.6597 62.3628 52.4607V34.339H36.2974Z" fill="black"/>
<path d="M14.7002 66.7346C6.88057 66.7346 0.42627 60.2803 0.42627 52.4606V14.9761C0.42627 7.15645 6.88057 0.702148 14.7002 0.702148C22.5198 0.702148 28.9741 7.15645 28.9741 14.9761V52.4606C28.9741 60.4044 22.5198 66.7346 14.7002 66.7346ZM14.7002 1.94336C7.50118 1.94336 1.66748 7.77706 1.66748 14.9761V52.4606C1.66748 59.6597 7.50118 65.4934 14.7002 65.4934C21.8992 65.4934 27.7329 59.6597 27.7329 52.4606V14.9761C27.6088 7.77706 21.8992 1.94336 14.7002 1.94336Z" fill="black"/>
</svg>
