<svg width="59" height="81" viewBox="0 0 59 81" fill="none" xmlns="http://www.w3.org/2000/svg">
<path d="M54.0326 80.8325H5.87354C3.14287 80.8325 0.908691 78.5983 0.908691 75.8676V5.86322C0.908691 3.13256 3.14287 0.898376 5.87354 0.898376H54.0326C56.7632 0.898376 58.9974 3.13256 58.9974 5.86322V75.8676C58.9974 78.7224 56.7632 80.8325 54.0326 80.8325ZM5.87354 2.51194C4.01172 2.51194 2.39814 4.00145 2.39814 5.98739V75.9917C2.39814 77.8535 3.8876 79.4671 5.87354 79.4671H54.0326C55.8944 79.4671 57.508 77.9776 57.508 75.9917V5.98739C57.508 4.12557 56.0185 2.51194 54.0326 2.51194H5.87354Z" fill="black"/>
<path d="M49.192 12.1935H10.7144C10.3421 12.1935 9.96973 11.8211 9.96973 11.4487C9.96973 11.0764 10.3421 10.704 10.7144 10.704H49.192C49.5644 10.704 49.9368 11.0764 49.9368 11.4487C49.9368 11.8211 49.5644 12.1935 49.192 12.1935Z" fill="black"/>
<path d="M49.192 20.0131H10.7144C10.3421 20.0131 9.96973 19.6407 9.96973 19.2683C9.96973 18.896 10.3421 18.5236 10.7144 18.5236H49.192C49.5644 18.5236 49.9368 18.896 49.9368 19.2683C49.9368 19.7648 49.5644 20.0131 49.192 20.0131Z" fill="black"/>
<path d="M49.192 27.9568H10.7144C10.3421 27.9568 9.96973 27.5845 9.96973 27.2121C9.96973 26.8397 10.3421 26.4674 10.7144 26.4674H49.192C49.5644 26.4674 49.9368 26.8397 49.9368 27.2121C49.9368 27.5845 49.5644 27.9568 49.192 27.9568Z" fill="black"/>
<path d="M49.192 35.7765H10.7144C10.3421 35.7765 9.96973 35.4041 9.96973 35.0317C9.96973 34.6594 10.3421 34.287 10.7144 34.287H49.192C49.5644 34.287 49.9368 34.6594 49.9368 35.0317C49.9368 35.5282 49.5644 35.7765 49.192 35.7765Z" fill="black"/>
<path d="M49.192 43.7202H10.7144C10.3421 43.7202 9.96973 43.3479 9.96973 42.9755C9.96973 42.6032 10.3421 42.2308 10.7144 42.2308H49.192C49.5644 42.2308 49.9368 42.6032 49.9368 42.9755C49.9368 43.3479 49.5644 43.7202 49.192 43.7202Z" fill="black"/>
<path d="M49.192 51.5399H10.7144C10.3421 51.5399 9.96973 51.1675 9.96973 50.7952C9.96973 50.4228 10.3421 50.0505 10.7144 50.0505H49.192C49.5644 50.0505 49.9368 50.4228 49.9368 50.7952C49.9368 51.1675 49.5644 51.5399 49.192 51.5399Z" fill="black"/>
<path d="M24.1196 66.062H10.7144C10.3421 66.062 9.96973 65.6897 9.96973 65.3173C9.96973 64.945 10.3421 64.5726 10.7144 64.5726H24.1196C24.4919 64.5726 24.8643 64.945 24.8643 65.3173C24.8643 65.6897 24.616 66.062 24.1196 66.062Z" fill="black"/>
<path d="M19.4029 73.5093H10.7144C10.3421 73.5093 9.96973 73.137 9.96973 72.7646C9.96973 72.3922 10.3421 72.0198 10.7144 72.0198H19.4029C19.7753 72.0198 20.1477 72.3922 20.1477 72.7646C20.1477 73.137 19.7753 73.5093 19.4029 73.5093Z" fill="black"/>
<path d="M47.0817 65.8137C48.9435 62.4625 42.2409 62.4625 44.2269 65.8137C42.3651 62.4625 38.8897 68.2962 42.7375 68.2962C38.8897 68.2962 42.2409 74.1299 44.2269 70.7786C42.3651 74.1299 49.0676 74.1299 47.0817 70.7786C48.9435 74.1299 52.4189 68.2962 48.5711 68.2962C52.4189 68.2962 49.0676 62.4625 47.0817 65.8137Z" fill="#007BFF" fill-opacity="0.2"/>
</svg>
